<?xml version="1.0" encoding="UTF-8"?>
<svg id="Layer_1" data-name="Layer 1" xmlns="http://www.w3.org/2000/svg" viewBox="0 0 1920 267.54">
  <defs>
    <style>
      .cls-1 {
        fill: #000;
        stroke-width: 0px;
      }
    </style>
  </defs>
  <path class="cls-1" d="M44.59,215.52c0,4.13-2.89,7.02-6.61,7.43,3.72.41,6.19,2.89,6.61,6.61.41-3.72,3.3-6.61,7.43-6.61h89.18c12.39,0,22.29,9.91,22.29,22.3s-9.91,22.29-22.29,22.29H22.3c-12.39,0-22.3-9.91-22.3-22.29V22.29C0,9.91,9.91,0,22.3,0h118.91c12.39,0,22.29,9.91,22.29,22.29s-9.91,22.29-22.29,22.29H52.02c-4.13,0-7.02-2.89-7.43-6.61-.41,3.3-3.3,6.19-6.61,6.61,3.72.41,6.61,3.72,6.61,7.43v52.02c0,4.13,3.3,7.43,7.43,7.43h74.32c12.39,0,22.29,9.91,22.29,22.3s-9.91,22.29-22.29,22.29H52.02c-4.13,0-7.02-2.89-7.43-6.61-.41,3.3-3.3,6.19-6.61,6.61,3.72.41,6.61,3.72,6.61,7.43v52.02Z"/>
  <path class="cls-1" d="M208.09,163.5c0-4.13-3.3-7.43-7.43-7.43-12.39,0-22.3-9.91-22.3-22.29v-52.02c0-12.39,9.91-22.29,22.3-22.29s22.29,9.91,22.29,22.29v52.02c0,4.13,3.3,7.43,7.43,7.43,12.39,0,22.3,9.91,22.3,22.29v52.02c0,4.13,3.3,7.43,7.43,7.43h22.29c4.13,0,7.43-3.3,7.43-7.43v-52.02c0-12.39,9.91-22.29,22.29-22.29,4.13,0,7.43-3.3,7.43-7.43v-52.02c0-12.39,9.91-22.29,22.29-22.29s22.29,9.91,22.29,22.29v52.02c0,12.39-9.91,22.29-22.29,22.29-4.13,0-7.43,3.3-7.43,7.43v52.02c0,12.39-9.91,22.3-22.3,22.3-4.13,0-7.43,3.3-7.43,7.43,0,12.39-9.91,22.29-22.29,22.29h-22.29c-12.39,0-22.3-9.91-22.3-22.29,0-4.13-3.3-7.43-7.43-7.43-12.39,0-22.29-9.91-22.29-22.3v-52.02Z"/>
  <path class="cls-1" d="M445.89,215.52c0,4.13,3.3,7.43,7.43,7.43h74.32c4.13,0,7.43-3.3,7.43-7.43,0-12.39,9.91-22.29,22.29-22.29s22.29,9.91,22.29,22.29-9.91,22.3-22.29,22.3c-4.13,0-7.43,3.3-7.43,7.43,0,12.39-9.91,22.29-22.3,22.29h-74.32c-12.39,0-22.29-9.91-22.29-22.29,0-4.13-3.3-7.43-7.43-7.43-12.39,0-22.3-9.91-22.3-22.3v-104.04c0-12.39,9.91-22.29,22.3-22.29,4.13,0,7.43-3.3,7.43-7.43,0-12.39,9.91-22.29,22.29-22.29h74.32c12.39,0,22.3,9.91,22.3,22.29,0,4.13,3.3,7.43,7.43,7.43,12.39,0,22.29,9.91,22.29,22.29v22.3c0,12.39-9.91,22.29-22.29,22.29-4.13,0-7.43,3.3-7.43,7.43,0,12.39-9.91,22.29-22.3,22.29h-74.32c-4.13,0-7.43,3.3-7.43,7.43v22.29ZM445.89,147.81c.41-3.72,3.3-6.61,7.43-6.61h74.32c4.13,0,7.43-3.3,7.43-7.43v-22.3c0-4.13-3.3-7.43-7.43-7.43h-74.32c-4.13,0-7.43,3.3-7.43,7.43v36.33Z"/>
  <path class="cls-1" d="M665.12,245.25c0,12.39-9.91,22.29-22.29,22.29s-22.3-9.91-22.3-22.29V81.75c0-12.39,9.91-22.29,22.3-22.29s22.29,9.91,22.29,22.29v14.04c.41-3.72,3.3-6.61,7.43-6.61s7.43-3.3,7.43-7.43c0-12.39,9.91-22.29,22.3-22.29h44.59c12.39,0,22.29,9.91,22.29,22.29,0,4.13,3.3,7.43,7.43,7.43,12.39,0,22.29,9.91,22.29,22.29v133.77c0,12.39-9.91,22.29-22.29,22.29s-22.29-9.91-22.29-22.29V111.47c0-4.13-3.3-7.43-7.43-7.43h-59.45c-4.13,0-7.43,3.3-7.43,7.43s-3.3,7.43-7.43,7.43-7.43,3.3-7.43,7.43v118.91Z"/>
  <path class="cls-1" d="M843.48,59.45h14.86c4.13,0,7.43-3.3,7.43-7.43v-29.73c0-12.39,9.91-22.29,22.29-22.29s22.3,9.91,22.3,22.29v37.16h44.59c12.39,0,22.29,9.91,22.29,22.29s-9.91,22.29-22.29,22.29h-37.16c-4.13,0-7.02-2.89-7.43-6.61-.41,3.3-3.3,6.19-6.61,6.61,3.72.41,6.61,3.72,6.61,7.43v104.04c0,4.13,3.3,7.43,7.43,7.43h37.16c12.39,0,22.29,9.91,22.29,22.3s-9.91,22.29-22.29,22.29h-37.16c-12.39,0-22.3-9.91-22.3-22.29,0-4.13-3.3-7.43-7.43-7.43-12.39,0-22.29-9.91-22.29-22.3v-118.08c-.41,3.72-3.72,6.61-7.43,6.61h-14.86c-12.39,0-22.29-9.91-22.29-22.29s9.91-22.29,22.29-22.29Z"/>
  <path class="cls-1" d="M1118.45,222.95c4.13,0,7.43-3.3,7.43-7.43v-22.29c0-4.13-3.3-7.43-7.43-7.43h-74.32c-12.39,0-22.3-9.91-22.3-22.29,0-4.13-3.3-7.43-7.43-7.43-12.39,0-22.29-9.91-22.29-22.29v-22.3c0-12.39,9.91-22.29,22.29-22.29,4.13,0,7.43-3.3,7.43-7.43,0-12.39,9.91-22.29,22.3-22.29h74.32c12.39,0,22.29,9.91,22.29,22.29,0,4.13,3.3,7.43,7.43,7.43,12.39,0,22.3,9.91,22.3,22.29s-9.91,22.3-22.3,22.3-22.29-9.91-22.29-22.3c0-4.13-3.3-7.43-7.43-7.43h-74.32c-4.13,0-7.43,3.3-7.43,7.43v22.3c0,4.13,3.3,7.43,7.43,7.43h74.32c12.39,0,22.29,9.91,22.29,22.29,0,4.13,3.3,7.43,7.43,7.43,12.39,0,22.3,9.91,22.3,22.29v22.29c0,12.39-9.91,22.3-22.3,22.3-4.13,0-7.43,3.3-7.43,7.43,0,12.39-9.91,22.29-22.29,22.29h-74.32c-12.39,0-22.3-9.91-22.3-22.29,0-4.13-3.3-7.43-7.43-7.43-12.39,0-22.29-9.91-22.29-22.3s9.91-22.29,22.29-22.29,22.29,9.91,22.29,22.29c0,4.13,3.3,7.43,7.43,7.43h74.32Z"/>
</svg>