<svg xmlns="http://www.w3.org/2000/svg" width="1920" height="267.854" viewBox="0 0 1920 267.854">
  <g id="header" transform="translate(-0.01)">
    <path id="Path_1" data-name="Path 1" d="M141.368,223.217a7.407,7.407,0,0,0,7.436-7.436v-37.2a7.407,7.407,0,0,0-7.436-7.436H111.6a22.224,22.224,0,0,1-22.319-22.319,7.407,7.407,0,0,0-7.436-7.436H52.083A22.224,22.224,0,0,1,29.765,119.07a7.407,7.407,0,0,0-7.436-7.436A22.224,22.224,0,0,1,.01,89.315v-37.2A22.224,22.224,0,0,1,22.329,29.8a7.407,7.407,0,0,0,7.436-7.436A22.233,22.233,0,0,1,52.083,0h89.285a22.224,22.224,0,0,1,22.319,22.319,7.407,7.407,0,0,0,7.436,7.436A22.319,22.319,0,1,1,148.8,52.073a7.407,7.407,0,0,0-7.436-7.436H52.083a7.407,7.407,0,0,0-7.436,7.436v37.2a7.407,7.407,0,0,0,7.436,7.436H81.848a22.224,22.224,0,0,1,22.319,22.319,7.407,7.407,0,0,0,7.436,7.436h29.765a22.224,22.224,0,0,1,22.319,22.319,7.407,7.407,0,0,0,7.436,7.436,22.224,22.224,0,0,1,22.319,22.319v37.2a22.224,22.224,0,0,1-22.319,22.319,7.407,7.407,0,0,0-7.436,7.436,22.224,22.224,0,0,1-22.319,22.319H52.083a22.224,22.224,0,0,1-22.319-22.319,7.407,7.407,0,0,0-7.436-7.436A22.319,22.319,0,1,1,44.647,215.74a7.407,7.407,0,0,0,7.436,7.436h89.285Z" transform="translate(0)" fill="#00FF00"/>
    <path id="Path_2" data-name="Path 2" d="M381.058,107.89a7.407,7.407,0,0,0,7.436-7.436V22.319a22.319,22.319,0,0,1,44.637,0v78.125a7.407,7.407,0,0,0,7.436,7.436h9.094A22.224,22.224,0,0,1,471.981,130.2V215.76a7.407,7.407,0,0,0,7.436,7.436h10.752a7.407,7.407,0,0,0,7.436-7.436V171.113a22.224,22.224,0,0,1,22.319-22.319,7.407,7.407,0,0,0,7.436-7.436V89.274a22.224,22.224,0,0,1,22.319-22.319,7.407,7.407,0,0,0,7.436-7.436v-37.2a22.319,22.319,0,0,1,44.637,0v37.2a22.224,22.224,0,0,1-22.319,22.319A7.407,7.407,0,0,0,572,89.274v52.084a22.224,22.224,0,0,1-22.319,22.319,7.407,7.407,0,0,0-7.436,7.436V215.76a22.224,22.224,0,0,1-22.319,22.319,7.407,7.407,0,0,0-7.436,7.436,22.224,22.224,0,0,1-22.319,22.319H479.417A22.224,22.224,0,0,1,457.1,245.515a7.407,7.407,0,0,0-7.436-7.436,22.224,22.224,0,0,1-22.319-22.319V137.635a7.407,7.407,0,0,0-7.436-7.436H401.719a7.509,7.509,0,0,0-7.853,7.436V215.76a22.224,22.224,0,0,1-22.319,22.319,7.407,7.407,0,0,0-7.436,7.436,22.224,22.224,0,0,1-22.319,22.319H330.633a22.224,22.224,0,0,1-22.319-22.319,7.407,7.407,0,0,0-7.436-7.436,22.224,22.224,0,0,1-22.319-22.319V171.113a7.407,7.407,0,0,0-7.436-7.436A22.224,22.224,0,0,1,248.8,141.358V89.274a7.407,7.407,0,0,0-7.436-7.436A22.224,22.224,0,0,1,219.05,59.52v-37.2a22.319,22.319,0,0,1,44.637,0v37.2a7.407,7.407,0,0,0,7.436,7.436,22.224,22.224,0,0,1,22.319,22.319v52.084a7.407,7.407,0,0,0,7.436,7.436A22.224,22.224,0,0,1,323.2,171.113V215.76a7.407,7.407,0,0,0,7.436,7.436h11.159a7.407,7.407,0,0,0,7.436-7.436V130.2a22.224,22.224,0,0,1,22.319-22.319h9.511Z" transform="translate(3.78)" fill="#00FF00"/>
    <path id="Path_3" data-name="Path 3" d="M765.508,223.216a7.407,7.407,0,0,0,7.436-7.436v-37.2a7.407,7.407,0,0,0-7.436-7.436H735.743a22.224,22.224,0,0,1-22.319-22.319,7.407,7.407,0,0,0-7.436-7.436H676.223A22.224,22.224,0,0,1,653.9,119.069a7.407,7.407,0,0,0-7.436-7.436A22.224,22.224,0,0,1,624.15,89.314v-37.2a22.224,22.224,0,0,1,22.319-22.319,7.407,7.407,0,0,0,7.436-7.436A22.224,22.224,0,0,1,676.223.04h89.285a22.224,22.224,0,0,1,22.319,22.319,7.407,7.407,0,0,0,7.436,7.436,22.319,22.319,0,1,1-22.319,22.319,7.407,7.407,0,0,0-7.436-7.436H676.223a7.407,7.407,0,0,0-7.436,7.436v37.2a7.407,7.407,0,0,0,7.436,7.436h29.765a22.224,22.224,0,0,1,22.319,22.319,7.407,7.407,0,0,0,7.436,7.436h29.765a22.224,22.224,0,0,1,22.319,22.319,7.407,7.407,0,0,0,7.436,7.436,22.224,22.224,0,0,1,22.319,22.319v37.2A22.224,22.224,0,0,1,795.263,238.1a7.407,7.407,0,0,0-7.436,7.436,22.224,22.224,0,0,1-22.319,22.319H676.223A22.224,22.224,0,0,1,653.9,245.534a7.407,7.407,0,0,0-7.436-7.436,22.319,22.319,0,1,1,22.319-22.319,7.407,7.407,0,0,0,7.436,7.436Z" transform="translate(10.77 0.001)" fill="#00FF00"/>
    <path id="Path_4" data-name="Path 4" d="M1005.188,107.89a7.407,7.407,0,0,0,7.436-7.436V22.319a22.319,22.319,0,1,1,44.637,0v78.125a7.407,7.407,0,0,0,7.436,7.436h9.094A22.224,22.224,0,0,1,1096.11,130.2V215.76a7.407,7.407,0,0,0,7.436,7.436H1114.3a7.407,7.407,0,0,0,7.436-7.436V171.113a22.224,22.224,0,0,1,22.319-22.319,7.407,7.407,0,0,0,7.436-7.436V89.274a22.224,22.224,0,0,1,22.319-22.319,7.407,7.407,0,0,0,7.436-7.436v-37.2a22.319,22.319,0,1,1,44.637,0v37.2a22.224,22.224,0,0,1-22.319,22.319,7.407,7.407,0,0,0-7.436,7.436v52.084a22.224,22.224,0,0,1-22.318,22.319,7.407,7.407,0,0,0-7.436,7.436V215.76a22.224,22.224,0,0,1-22.318,22.319,7.407,7.407,0,0,0-7.436,7.436,22.224,22.224,0,0,1-22.318,22.319h-10.752a22.224,22.224,0,0,1-22.319-22.319,7.407,7.407,0,0,0-7.436-7.436,22.224,22.224,0,0,1-22.319-22.319V137.635a7.407,7.407,0,0,0-7.436-7.436h-18.189a7.509,7.509,0,0,0-7.853,7.436V215.76a22.224,22.224,0,0,1-22.319,22.319,7.407,7.407,0,0,0-7.436,7.436,22.224,22.224,0,0,1-22.319,22.319H954.763a22.224,22.224,0,0,1-22.319-22.319,7.407,7.407,0,0,0-7.436-7.436,22.224,22.224,0,0,1-22.319-22.319V171.113a7.407,7.407,0,0,0-7.436-7.436,22.224,22.224,0,0,1-22.319-22.319V89.274a7.407,7.407,0,0,0-7.436-7.436A22.224,22.224,0,0,1,843.18,59.52v-37.2a22.319,22.319,0,0,1,44.637,0v37.2a7.407,7.407,0,0,0,7.436,7.436,22.224,22.224,0,0,1,22.319,22.319v52.084a7.407,7.407,0,0,0,7.436,7.436,22.224,22.224,0,0,1,22.319,22.319V215.76a7.407,7.407,0,0,0,7.436,7.436h11.159a7.407,7.407,0,0,0,7.436-7.436V130.2a22.224,22.224,0,0,1,22.319-22.319h9.511Z" transform="translate(14.55)" fill="#00FF00"/>
    <path id="Path_5" data-name="Path 5" d="M1389.648,223.216a7.407,7.407,0,0,0,7.436-7.436v-37.2a7.407,7.407,0,0,0-7.436-7.436h-29.765a22.224,22.224,0,0,1-22.319-22.319,7.407,7.407,0,0,0-7.436-7.436h-29.765a22.224,22.224,0,0,1-22.319-22.319,7.407,7.407,0,0,0-7.436-7.436,22.224,22.224,0,0,1-22.319-22.319v-37.2a22.224,22.224,0,0,1,22.319-22.319,7.407,7.407,0,0,0,7.436-7.436A22.224,22.224,0,0,1,1300.363.04h89.285a22.224,22.224,0,0,1,22.319,22.319,7.407,7.407,0,0,0,7.436,7.436,22.319,22.319,0,1,1-22.318,22.319,7.407,7.407,0,0,0-7.436-7.436h-89.285a7.407,7.407,0,0,0-7.436,7.436v37.2a7.407,7.407,0,0,0,7.436,7.436h29.765a22.224,22.224,0,0,1,22.319,22.319,7.407,7.407,0,0,0,7.436,7.436h29.765a22.224,22.224,0,0,1,22.319,22.319,7.407,7.407,0,0,0,7.436,7.436,22.224,22.224,0,0,1,22.319,22.319v37.2A22.224,22.224,0,0,1,1419.4,238.1a7.407,7.407,0,0,0-7.436,7.436,22.224,22.224,0,0,1-22.319,22.319h-89.285a22.224,22.224,0,0,1-22.319-22.319,7.407,7.407,0,0,0-7.436-7.436,22.319,22.319,0,1,1,22.318-22.319,7.407,7.407,0,0,0,7.436,7.436Z" transform="translate(21.541 0.001)" fill="#00FF00"/>
    <path id="Path_6" data-name="Path 6" d="M1522.907,103.343a7.269,7.269,0,0,1,7.436-6.612h89.285a22.224,22.224,0,0,1,22.318,22.319,7.407,7.407,0,0,0,7.436,7.436A22.224,22.224,0,0,1,1671.7,148.8V215.77a22.224,22.224,0,0,1-22.318,22.319,7.407,7.407,0,0,0-7.436,7.436,22.224,22.224,0,0,1-22.318,22.319h-89.285a22.224,22.224,0,0,1-22.318-22.319,7.407,7.407,0,0,0-7.436-7.436,22.224,22.224,0,0,1-22.319-22.319V52.083a22.224,22.224,0,0,1,22.319-22.319,7.407,7.407,0,0,0,7.436-7.436A22.224,22.224,0,0,1,1530.343.01h89.285a22.224,22.224,0,0,1,22.318,22.319,7.407,7.407,0,0,0,7.436,7.436,22.319,22.319,0,1,1-22.319,22.319,7.407,7.407,0,0,0-7.436-7.436h-89.285a7.407,7.407,0,0,0-7.436,7.436Zm96.721,119.873a7.407,7.407,0,0,0,7.436-7.436V148.814a7.407,7.407,0,0,0-7.436-7.436h-89.285a7.407,7.407,0,0,0-7.436,7.436V215.78a7.407,7.407,0,0,0,7.436,7.436Z" transform="translate(25.509 0)" fill="#00FF00"/>
    <path id="Path_7" data-name="Path 7" d="M1749.363,171.133a22.224,22.224,0,0,1-22.319-22.319,7.407,7.407,0,0,0-7.436-7.436,22.224,22.224,0,0,1-22.319-22.319V52.083a22.224,22.224,0,0,1,22.319-22.319,7.407,7.407,0,0,0,7.436-7.436A22.224,22.224,0,0,1,1749.363.01h89.285a22.224,22.224,0,0,1,22.319,22.319,7.407,7.407,0,0,0,7.436,7.436,22.224,22.224,0,0,1,22.319,22.319V215.77a22.224,22.224,0,0,1-22.319,22.319,7.407,7.407,0,0,0-7.436,7.436,22.224,22.224,0,0,1-22.319,22.319h-89.285a22.224,22.224,0,0,1-22.319-22.319,7.407,7.407,0,0,0-7.436-7.436,22.319,22.319,0,1,1,22.318-22.319,7.407,7.407,0,0,0,7.436,7.436h89.285a7.407,7.407,0,0,0,7.436-7.436V164.51a7.57,7.57,0,0,1-7.436,6.612h-89.285Zm89.285-44.647a7.407,7.407,0,0,0,7.436-7.436V52.083a7.407,7.407,0,0,0-7.436-7.436h-89.285a7.407,7.407,0,0,0-7.436,7.436v66.966a7.407,7.407,0,0,0,7.436,7.436Z" transform="translate(29.289 0)" fill="#00FF00"/>
  </g>
</svg>
